<svg width="216" height="101" viewBox="0 0 216 101" fill="none" xmlns="http://www.w3.org/2000/svg">
<rect x="100" y="23" width="34" height="42" rx="5" fill="#E13D20"/>
<path d="M34.2878 36.92V65H27.4478V48.16L21.1678 65H15.6478L9.32781 48.12V65H2.48781V36.92H10.5678L18.4478 56.36L26.2478 36.92H34.2878ZM58.6866 60.04H48.2066L46.5266 65H39.3666L49.5266 36.92H57.4466L67.6066 65H60.3666L58.6866 60.04ZM56.9266 54.76L53.4466 44.48L50.0066 54.76H56.9266ZM97.8188 65H90.9788L79.5388 47.68V65H72.6988V36.92H79.5388L90.9788 54.32V36.92H97.8188V65ZM154.909 45.8C154.402 44.8667 153.669 44.16 152.709 43.68C151.776 43.1733 150.669 42.92 149.389 42.92C147.176 42.92 145.402 43.6533 144.069 45.12C142.736 46.56 142.069 48.4933 142.069 50.92C142.069 53.5067 142.762 55.5333 144.149 57C145.562 58.44 147.496 59.16 149.949 59.16C151.629 59.16 153.042 58.7333 154.189 57.88C155.362 57.0267 156.216 55.8 156.749 54.2H148.069V49.16H162.949V55.52C162.442 57.2267 161.576 58.8133 160.349 60.28C159.149 61.7467 157.616 62.9333 155.749 63.84C153.882 64.7467 151.776 65.2 149.429 65.2C146.656 65.2 144.176 64.6 141.989 63.4C139.829 62.1733 138.136 60.48 136.909 58.32C135.709 56.16 135.109 53.6933 135.109 50.92C135.109 48.1467 135.709 45.68 136.909 43.52C138.136 41.3333 139.829 39.64 141.989 38.44C144.149 37.2133 146.616 36.6 149.389 36.6C152.749 36.6 155.576 37.4133 157.869 39.04C160.189 40.6667 161.722 42.92 162.469 45.8H154.909ZM175.578 42.4V48.08H184.738V53.36H175.578V59.52H185.938V65H168.738V36.92H185.938V42.4H175.578ZM206.698 65L200.858 54.4H199.218V65H192.378V36.92H203.858C206.072 36.92 207.952 37.3067 209.498 38.08C211.072 38.8533 212.245 39.92 213.018 41.28C213.792 42.6133 214.178 44.1067 214.178 45.76C214.178 47.6267 213.645 49.2933 212.578 50.76C211.538 52.2267 209.992 53.2667 207.938 53.88L214.418 65H206.698ZM199.218 49.56H203.458C204.712 49.56 205.645 49.2533 206.258 48.64C206.898 48.0267 207.218 47.16 207.218 46.04C207.218 44.9733 206.898 44.1333 206.258 43.52C205.645 42.9067 204.712 42.6 203.458 42.6H199.218V49.56Z" fill="black"/>
<path d="M122.257 60.04H111.777L110.097 65H102.937L113.097 36.92H121.017L131.177 65H123.937L122.257 60.04ZM120.497 54.76L117.017 44.48L113.577 54.76H120.497Z" fill="white"/>
</svg>
