<svg width="223" height="309" viewBox="0 0 223 309" fill="none" xmlns="http://www.w3.org/2000/svg">
<path d="M199 167.5C199 190.384 186.187 215.388 166.55 234.687C146.917 253.981 120.537 267.5 93.5 267.5C67.9899 267.5 48.7124 254.261 31.1802 240.604C11.6913 225.424 1 206.16 1 182C1 159.03 7.24919 141.183 20.1916 129.072C33.1401 116.954 52.8712 110.5 80 110.5C85.556 110.5 92.0954 110.01 99.0174 109.44C99.9318 109.365 100.853 109.289 101.78 109.212C107.875 108.705 114.206 108.178 120.404 107.898C127.544 107.574 134.487 107.577 140.662 108.309C146.843 109.041 152.211 110.498 156.232 113.051C168.237 120.675 178.926 127.519 186.626 135.856C194.302 144.168 199 153.96 199 167.5Z" fill="#E13D20" stroke="black"/>
<path d="M209 131.639C201.221 126.483 171.847 122.5 163.5 125.004L156.5 131L166 179L171 197L181.5 200.5C192.114 195.995 197.587 191.286 206.5 179C212.322 168.989 215.807 160.612 219 148L220.2 143L222 135.5C219.594 136.114 218.29 137 216 139C217.501 136.99 218.37 135.124 219 133.003C215.207 132.073 212.078 131.627 209 131.639Z" fill="white"/>
<path d="M209 131.639C201.221 126.484 171.847 122.5 163.5 125.004L156.5 131L166 179L171 197L181.5 200.5C192.114 195.995 197.587 191.286 206.5 179C212.322 168.989 215.807 160.612 219 148L220.2 143M197.5 133.504C205.7 131.241 210.798 130.993 219 133.003C218.37 135.124 217.501 136.99 216 139M209 147.003C211.826 143.758 214.293 141.286 216 139M216 139C218.29 137 219.594 136.114 222 135.5L220.2 143M210.5 153.5L220.2 143" stroke="black" stroke-linecap="round" stroke-linejoin="round"/>
<path d="M46.5 86.9997C45.6382 109.604 41 122.5 41 122.5L50.5 144L105 135.5L127 118.5V114C123.361 99.8432 121.677 88.833 119 65L117.5 59C116.121 54.2202 115.023 51.748 112 48L81 36L53 51.5C49.2555 61.5325 47.7868 69.1578 46.5 86.9997Z" fill="white"/>
<path d="M41 122.5L40.5295 122.33C40.486 122.451 40.4907 122.584 40.5427 122.702L41 122.5ZM46.5 86.9997L46.0013 86.9638C46.0009 86.9694 46.0006 86.975 46.0004 86.9807L46.5 86.9997ZM127 114H127.5C127.5 113.958 127.495 113.916 127.484 113.875L127 114ZM119 65L119.497 64.9442C119.494 64.9221 119.49 64.9003 119.485 64.8787L119 65ZM112 48L112.389 47.6861C112.334 47.6179 112.262 47.5654 112.18 47.5337L112 48ZM117.5 59L117.985 58.8787C117.984 58.8729 117.982 58.8672 117.98 58.8614L117.5 59ZM53 51.5L52.7578 51.0626L52.5962 51.152L52.5316 51.3252L53 51.5ZM81 36L81.1805 35.5337L80.9624 35.4493L80.7578 35.5626L81 36ZM50.5 144L50.0427 144.202L50.1978 144.553L50.5771 144.494L50.5 144ZM105 135.5L105.077 135.994L105.204 135.974L105.306 135.896L105 135.5ZM127 118.5L127.306 118.896L127.5 118.746V118.5H127ZM41 122.5C41.4705 122.669 41.4706 122.669 41.4706 122.669C41.4707 122.668 41.4708 122.668 41.4709 122.668C41.4711 122.667 41.4713 122.667 41.4717 122.666C41.4723 122.664 41.4733 122.661 41.4745 122.658C41.477 122.651 41.4805 122.641 41.4851 122.628C41.4944 122.601 41.5079 122.562 41.5254 122.511C41.5605 122.409 41.6116 122.257 41.6767 122.056C41.8068 121.654 41.993 121.056 42.2188 120.269C42.6703 118.696 43.2799 116.366 43.9162 113.329C45.1887 107.254 46.5676 98.3513 46.9996 87.0188L46.0004 86.9807C45.5706 98.2522 44.1995 107.099 42.9374 113.124C42.3064 116.136 41.7027 118.443 41.2576 119.994C41.035 120.769 40.8521 121.356 40.7253 121.747C40.6619 121.943 40.6125 122.09 40.5792 122.188C40.5625 122.236 40.5499 122.273 40.5415 122.297C40.5373 122.308 40.5342 122.317 40.5322 122.323C40.5312 122.326 40.5305 122.328 40.53 122.329C40.5298 122.33 40.5296 122.33 40.5296 122.33C40.5295 122.33 40.5295 122.331 40.5295 122.331C40.5295 122.331 40.5295 122.33 41 122.5ZM127.484 113.875C123.854 99.7531 122.173 88.7707 119.497 64.9442L118.503 65.0558C121.181 88.8953 122.868 99.9332 126.516 114.124L127.484 113.875ZM111.611 48.3139C114.582 51.9981 115.654 54.4058 117.02 59.1386L117.98 58.8614C116.588 54.0345 115.463 51.498 112.389 47.6861L111.611 48.3139ZM46.9987 87.0357C48.2838 69.2175 49.7472 61.6448 53.4684 51.6748L52.5316 51.3252C48.7637 61.4201 47.2898 69.0982 46.0013 86.9638L46.9987 87.0357ZM53.2422 51.9374L81.2422 36.4374L80.7578 35.5626L52.7578 51.0626L53.2422 51.9374ZM80.8195 36.4663L111.82 48.4663L112.18 47.5337L81.1805 35.5337L80.8195 36.4663ZM40.5427 122.702L50.0427 144.202L50.9573 143.798L41.4573 122.298L40.5427 122.702ZM50.5771 144.494L105.077 135.994L104.923 135.006L50.4229 143.506L50.5771 144.494ZM105.306 135.896L127.306 118.896L126.694 118.104L104.694 135.104L105.306 135.896ZM127.5 118.5V114H126.5V118.5H127.5ZM117.015 59.1213L118.515 65.1213L119.485 64.8787L117.985 58.8787L117.015 59.1213Z" fill="black"/>
<path d="M78 272.5C75.0247 267.979 72.8113 264.743 68.5 258.5L89 260C86.1846 265.385 84.9601 268.034 83.5 272L78 272.5Z" fill="white"/>
<path d="M116.5 272L109 258.5C110.842 254.81 116.087 253.411 132.5 252L121.5 271.5L116.5 272Z" fill="white"/>
<path d="M78 272.5C75.0247 267.979 72.8113 264.743 68.5 258.5L89 260C86.1846 265.385 84.9601 268.034 83.5 272L78 272.5Z" stroke="black" stroke-linecap="round" stroke-linejoin="round"/>
<path d="M116.5 272L109 258.5C110.842 254.81 116.087 253.411 132.5 252L121.5 271.5L116.5 272Z" stroke="black" stroke-linecap="round" stroke-linejoin="round"/>
<path d="M79 282.5L77.5 271L83.5 270L84.5 281.5H91.5C90.3996 282.61 89.693 283.245 87.5 284.5C92.4235 288.582 94.2075 290.899 95.5 295L84.5 291C77.7922 299.197 76.5355 300.044 75 300.5L76.5 291C69.5429 292.188 65.8566 292.732 64 291C69.4901 287.511 72.7153 285.623 79 282.5Z" fill="#E49199"/>
<path d="M116 287L115 269H122.5C122.5 269 121 290 123.5 293C126 296 132.5 299.5 132 300.5C131.5 301.5 124.5 298.5 119.5 299.5C114.5 300.5 104.305 309.787 104.5 307.5C104.634 305.922 108.479 300.674 110.79 297.5C102.156 299.5 101.369 300.009 101 299C101.458 298.246 102.556 297.366 111.5 292C114.032 290.595 114.961 289.459 116 287Z" fill="#E49199"/>
<path d="M110.79 297.5C102.156 299.5 101.369 300.009 101 299C101.458 298.246 102.556 297.366 111.5 292C114.032 290.595 114.961 289.459 116 287L115 269H122.5C122.5 269 121 290 123.5 293C126 296 132.5 299.5 132 300.5C131.5 301.5 124.5 298.5 119.5 299.5C114.5 300.5 104.305 309.787 104.5 307.5C104.695 305.213 112.69 295.208 112.5 295M77.5 271L79 282.5C72.7153 285.623 69.4901 287.511 64 291C65.8566 292.732 69.5429 292.188 76.5 291L75 300.5C76.5355 300.044 77.7922 299.197 84.5 291L95.5 295C94.2075 290.899 92.4235 288.582 87.5 284.5C89.693 283.245 90.3996 282.61 91.5 281.5H84.5L83.5 270L77.5 271Z" stroke="black" stroke-linecap="round" stroke-linejoin="round"/>
<path d="M28.5 40C25.1104 39.3673 60.0998 41.9879 62 36.5C53.8817 30.2506 49.4441 26.9052 42 27.5C56.1261 22.5687 63.3884 24.6341 75.5 34.5C72.5695 31.3098 72.8298 27.9513 73.5 24.5C75.8769 29.3758 77.5968 30.7394 81 32C82.3907 31.5441 82.5743 30.6125 82.5 28.5C82.5 28.5 81 22 80.5 20C80 18 76 8.5 76 8.5C80.7304 3.19915 83.4869 1.86726 88.5 1C90.3556 5.78213 90.2978 9.12466 89.5 15.5L86.6034 29.5C91.9235 25.0752 97.6034 24 106.103 23.5C114.603 23 116.5 20 116.5 20C115.377 27.1977 112.456 30.3396 106.2 34.7041C109.177 34.6312 111.765 35.0887 115 36C122.891 38.7496 127.291 39.8832 135 39.5C135 39.5 130 44 122.5 46.5C116.965 48.3451 105.166 47.4667 99.3636 46.8799C110.057 49.2631 120.138 62.0791 123 63C123 63 114 67 109 67.5C104 68 95.9405 67.0144 91 62C86.4115 56.811 84.7323 50.9379 84 45.5C83.3639 50.3283 83 52 80 55.5C77 59 76.5 58.5 72 63C67.5 67.5 65.5 71 65.5 71C62.4167 66.8587 62 62.5 64 58C65.0085 55.731 67.2067 52.7029 69.5 49.8077C56.5035 53.5126 53.7744 52.6212 36.5001 42.5C33.7449 41.0453 31.8897 40.6327 28.5 40Z" fill="#51AB5A"/>
<path d="M69.5 49.8077C56.5035 53.5126 53.7744 52.6212 36.5001 42.5C33.7449 41.0453 31.8897 40.6327 28.5 40C25.1104 39.3673 60.0998 41.9879 62 36.5C53.8817 30.2506 49.4441 26.9052 42 27.5C56.1261 22.5687 63.3884 24.6341 75.5 34.5C72.5695 31.3098 72.8298 27.9513 73.5 24.5C75.8769 29.3758 77.5968 30.7394 81 32C82.3907 31.5441 82.5743 30.6125 82.5 28.5C82.5 28.5 81 22 80.5 20C80 18 76 8.5 76 8.5C80.7304 3.19915 83.4869 1.86726 88.5 1C90.3556 5.78213 90.2978 9.12466 89.5 15.5L86.6034 29.5C91.9235 25.0752 97.6034 24 106.103 23.5C114.603 23 116.5 20 116.5 20C115.377 27.1977 112.456 30.3396 106.2 34.7041M75.5 42.5C72.6794 46.0149 66 53.5 64 58C62 62.5 62.4167 66.8587 65.5 71C65.5 71 67.5 67.5 72 63C76.5 58.5 77 59 80 55.5C83 52 83.3639 50.3283 84 45.5C84.7323 50.9379 86.4115 56.811 91 62C95.9405 67.0144 104 68 109 67.5C114 67 123 63 123 63C119.839 61.9829 107.872 46.4558 96 46.5C96 46.5 115 49 122.5 46.5C130 44 135 39.5 135 39.5C127.291 39.8832 122.891 38.7497 115 36C109.107 34.3402 105.362 34.1858 97.5 36" stroke="black" stroke-linecap="round" stroke-linejoin="round"/>
<path d="M50.3171 90.4983C51.7589 87.289 53.5996 83.499 53.5996 83.499C56.7509 80.9471 67.1175 88.9086 66.5996 90.9997C66.0817 93.0908 62.6675 94.7266 57.5995 95.999C52.5316 97.2715 48.8754 93.7077 50.3171 90.4983Z" fill="#F6F038" stroke="black" stroke-width="0.5" stroke-linecap="round"/>
<path d="M50 81.5C51 77.5006 54 75.0004 59.5 75.5007C65 76.0011 71 79.5007 71 85.0002C71 90.4996 67 90.0007 67 90.0007C67 90.0007 62 84.0015 57.5 83.0007C53 82 52.5 85.0007 52.5 85.0007C52.5 85.0007 49 85.4994 50 81.5Z" stroke="black" stroke-width="0.8" stroke-linecap="round"/>
<ellipse cx="96" cy="81.5" rx="5" ry="5.5" fill="black"/>
<circle cx="97" cy="81" r="1.5" fill="white"/>
<path d="M130 114.5C111.858 114.78 88 119.5 80.5 128C64.3466 121.048 56.8173 119.214 38.5 124L35 125.75L31.5 127.5L39.5 163.5L89.5 165L121.5 150L132.5 124L130 114.5Z" fill="#E13D20"/>
<path d="M177.5 160C171.478 134.853 163.652 123.764 160 123L140 127.5V177L154.5 221.5L175 220L179.5 206C179.5 206 183.522 185.147 177.5 160Z" fill="#E13D20"/>
<path d="M94 259.5C81.5182 260.806 75.0389 260.604 65 257.5L62.5 240L98 234V251.5L94 259.5Z" fill="#E13D20"/>
<path d="M135.5 252.5C125.346 255.645 119.116 257.096 106 258.5L105 231L121.5 221.5L140 240L135.5 252.5Z" fill="#E13D20"/>
<path d="M71.5 141C71.5 141 73 136.5 80.5 128M80.5 128C88 119.5 111.858 114.78 130 114.5M80.5 128C64.3466 121.048 54.8173 119.714 36.5 124.5M160 123C163.652 123.764 171.478 134.853 177.5 160C183.522 185.147 179.5 206 179.5 206M65 257.5C75.0389 260.604 81.5182 260.806 94 259.5M105.5 258.5C118.616 257.096 124.846 255.645 135 252.5" stroke="black" stroke-linecap="round" stroke-linejoin="round"/>
</svg>
